<svg preserveAspectRatio="xMidYMid meet" viewBox="24.8 198.8 463 108" xmlns="http://www.w3.org/2000/svg" version="1.0" style="max-height: 500px" width="463" height="108">

<g stroke="none" fill="#000000" transform="translate(0.000000,500.000000) scale(0.100000,-0.100000)">
<path d="M687 2923 c-4 -3 -7 -18 -7 -32 0 -21 -7 -29 -32 -39 -28 -10 -35 -9&#10;-54 9 -23 21 -33 20 -66 -9 -13 -11 -15 -19 -7 -40 8 -21 6 -30 -14 -49 -19&#10;-20 -28 -22 -49 -14 -23 8 -29 6 -42 -14 -21 -32 -20 -50 3 -66 15 -12 17 -20&#10;9 -46 -7 -27 -13 -33 -37 -33 -21 0 -30 -6 -35 -22 -11 -43 -6 -56 24 -67 20&#10;-7 30 -17 30 -30 0 -25 11 -26 53 -6 18 8 83 35 145 60 92 37 116 44 133 35&#10;16 -9 26 -8 46 5 14 10 22 12 18 6 -9 -16 13 -41 37 -41 11 0 22 8 25 19 5 20&#10;148 86 164 75 11 -6 29 -72 29 -105 0 -23 -10 -30 -123 -76 -93 -38 -128 -48&#10;-141 -41 -41 23 -86 -15 -71 -61 13 -42 78 -38 92 5 7 20 28 34 100 64 129 54&#10;133 55 133 33 0 -30 -57 -120 -95 -150 -36 -29 -48 -73 -21 -73 27 0 116 98&#10;143 157 22 47 27 73 26 133 0 74 -21 150 -42 150 -5 0 -49 -16 -96 -35 -106&#10;-42 -146 -43 -164 -3 -10 22 -19 28 -43 28 -24 0 -32 -6 -41 -30 -9 -25 -27&#10;-36 -117 -73 l-105 -44 -3 29 c-6 49 29 129 76 176 74 75 175 105 272 82 28&#10;-7 48 -16 43 -19 -21 -18 -151 -61 -177 -59 -35 4 -57 -23 -40 -49 15 -25 47&#10;-22 58 4 7 14 39 33 98 57 95 39 103 39 147 -8 29 -30 36 -31 76 -9 17 9 55&#10;16 85 17 53 1 55 2 58 29 4 34 -13 57 -42 57 -26 0 -46 -18 -46 -41 0 -9 -7&#10;-20 -16 -23 -26 -10 -27 -7 -9 21 18 26 17 27 -9 50 -26 22 -29 23 -55 7 -26&#10;-15 -30 -15 -55 1 -23 15 -27 24 -22 46 6 31 4 34 -40 43 -26 6 -32 3 -42 -19&#10;-20 -43 -92 -30 -92 17 0 14 -8 18 -33 18 -19 0 -37 -3 -40 -7z m481 -157 c5&#10;-24 -10 -38 -31 -30 -17 6 -23 35 -10 48 12 12 38 1 41 -18z m-450 -83 c5 -17&#10;-26 -29 -40 -15 -6 6 -7 15 -3 22 9 14 37 9 43 -7z m67 -78 c0 -22 -31 -33&#10;-47 -17 -17 17 -1 44 24 40 15 -2 23 -10 23 -23z m70 -45 c0 -22 -29 -18 -33&#10;3 -3 14 1 18 15 15 10 -2 18 -10 18 -18z m-66 -184 c15 -18 3 -46 -19 -46 -10&#10;0 -21 7 -24 16 -6 16 9 44 24 44 4 0 13 -6 19 -14z"/>
<path d="M1277 2643 c-12 -11 -8 -113 4 -113 6 0 13 9 16 21 3 11 16 25 29 30&#10;29 10 32 44 5 59 -23 12 -45 13 -54 3z m48 -33 c-3 -5 -10 -10 -16 -10 -5 0&#10;-9 5 -9 10 0 6 7 10 16 10 8 0 12 -4 9 -10z"/>
<path d="M1392 2634 c-41 -28 -20 -104 29 -104 25 0 59 34 59 60 0 20 -36 60&#10;-55 60 -6 0 -21 -7 -33 -16z m56 -37 c2 -10 -2 -24 -8 -32 -22 -26 -57 6 -43&#10;41 8 20 47 14 51 -9z"/>
<path d="M1493 2634 c3 -11 11 -38 17 -61 13 -51 35 -56 46 -10 l7 32 14 -33&#10;c7 -18 19 -32 25 -30 13 5 44 105 35 114 -11 11 -27 -7 -27 -30 0 -36 -14 -40&#10;-25 -7 -11 34 -28 41 -33 14 -8 -44 -14 -47 -26 -14 -13 37 -43 59 -33 25z"/>
<path d="M1660 2590 l0 -60 30 0 c17 0 30 5 30 10 0 6 -7 10 -15 10 -8 0 -15&#10;7 -15 15 0 8 7 15 15 15 8 0 15 5 15 10 0 6 -7 10 -15 10 -8 0 -15 5 -15 10 0&#10;6 7 10 15 10 8 0 15 7 15 15 0 10 -10 15 -30 15 l-30 0 0 -60z"/>
<path d="M1744 2636 c-9 -24 1 -99 14 -104 7 -2 12 6 13 20 l0 23 16 -22 c15&#10;-23 43 -31 43 -14 0 5 -7 14 -15 21 -11 9 -13 16 -5 24 16 16 12 44 -9 56 -27&#10;14 -51 13 -57 -4z m46 -26 c0 -5 -4 -10 -10 -10 -5 0 -10 5 -10 10 0 6 5 10&#10;10 10 6 0 10 -4 10 -10z"/>
<path d="M1850 2590 c0 -60 0 -60 29 -60 17 0 33 5 36 10 3 6 -3 10 -14 10&#10;-12 0 -21 7 -21 15 0 8 7 15 15 15 8 0 15 5 15 10 0 6 -7 10 -15 10 -22 0 -18&#10;17 6 23 29 8 14 27 -22 27 -29 0 -29 0 -29 -60z"/>
<path d="M1940 2590 c0 -52 3 -60 19 -60 26 0 71 38 71 60 0 22 -45 60 -71 60&#10;-16 0 -19 -8 -19 -60z m55 0 c0 -16 -6 -26 -17 -28 -14 -3 -18 3 -18 28 0 25&#10;4 31 18 28 11 -2 17 -12 17 -28z"/>
<path d="M2090 2590 c0 -56 2 -60 23 -60 35 0 62 23 52 46 -4 10 -7 27 -6 36&#10;2 18 -27 38 -53 38 -13 0 -16 -12 -16 -60z m50 -25 c0 -8 -4 -15 -10 -15 -5 0&#10;-10 7 -10 15 0 8 5 15 10 15 6 0 10 -7 10 -15z"/>
<path d="M2180 2643 c0 -5 9 -19 20 -33 11 -14 20 -37 20 -52 0 -16 5 -28 10&#10;-28 6 0 10 12 10 26 0 14 9 39 21 56 26 36 17 49 -14 20 -22 -21 -23 -21 -35&#10;-2 -12 20 -32 27 -32 13z"/>
<path d="M752 2498 c-7 -7 -12 -17 -12 -22 0 -6 -48 -30 -107 -54 -99 -39&#10;-109 -41 -120 -26 -7 9 -14 21 -15 26 -2 5 -30 -2 -63 -16 -40 -18 -62 -23&#10;-69 -16 -14 14 -49 13 -64 -2 -7 -7 -12 -24 -12 -38 0 -64 79 -70 91 -6 3 11&#10;19 24 41 32 l37 13 25 -42 c13 -23 36 -53 50 -66 22 -21 27 -22 40 -8 14 13&#10;12 18 -14 48 -16 19 -26 37 -22 41 18 17 207 88 222 83 27 -9 50 5 50 30 0 32&#10;-35 46 -58 23z m36 -25 c-4 -22 -22 -20 -26 1 -2 10 3 16 13 16 10 0 15 -7 13&#10;-17z m-433 -123 c0 -29 -32 -41 -41 -16 -9 24 4 48 23 44 12 -2 18 -12 18 -28z"/>
<path d="M2706 2395 c-43 -23 -55 -45 -56 -96 0 -63 34 -99 96 -99 60 0 94 31&#10;101 91 5 41 2 50 -23 78 -35 38 -78 47 -118 26z m82 -47 c29 -29 4 -108 -34&#10;-108 -35 0 -54 20 -54 58 0 45 14 62 50 62 14 0 31 -5 38 -12z"/>
<path d="M3229 2403 c-9 -2 -22 -15 -29 -28 -17 -33 -2 -69 40 -90 16 -8 30&#10;-22 30 -30 0 -17 -32 -20 -59 -6 -13 7 -20 5 -29 -9 -10 -16 -9 -21 7 -30 27&#10;-14 94 -13 115 3 12 9 17 23 14 47 -2 29 -10 39 -40 55 -37 20 -47 38 -28 50&#10;5 3 18 1 29 -5 16 -8 22 -6 31 10 9 17 7 22 -15 30 -27 10 -38 11 -66 3z"/>
<path d="M3505 2401 c-41 -18 -60 -51 -60 -103 0 -42 4 -53 28 -74 40 -34 105&#10;-33 141 2 35 36 37 110 4 149 -25 28 -79 41 -113 26z m75 -57 c20 -23 16 -75&#10;-5 -90 -40 -30 -85 -5 -85 46 0 52 60 81 90 44z"/>
<path d="M4583 2400 c-47 -19 -41 -77 13 -110 18 -12 34 -28 34 -36 0 -16 -33&#10;-19 -60 -4 -15 8 -21 6 -30 -9 -13 -26 12 -41 67 -41 55 0 75 18 71 60 -2 29&#10;-10 39 -46 59 -40 22 -42 25 -28 40 13 13 20 13 36 3 16 -10 21 -9 30 8 9 17&#10;7 22 -15 30 -31 12 -43 12 -72 0z"/>
<path d="M1270 2380 c0 -13 7 -20 20 -20 17 0 19 -8 22 -77 3 -72 5 -78 25&#10;-81 21 -3 22 1 25 80 3 75 5 83 23 83 11 0 21 8 23 18 3 15 -5 17 -67 17 -64&#10;0 -71 -2 -71 -20z"/>
<path d="M1440 2300 l0 -100 60 0 c53 0 60 2 60 20 0 17 -7 20 -40 20 -33 0&#10;-40 3 -40 20 0 16 7 20 35 20 28 0 35 4 35 19 0 15 -8 21 -32 23 -25 2 -33 8&#10;-33 22 0 16 7 20 35 20 25 1 36 6 38 19 3 15 -5 17 -57 17 l-61 0 0 -100z"/>
<path d="M1618 2307 c-21 -51 -38 -96 -38 -100 0 -16 40 -5 50 13 8 15 21 20&#10;50 20 30 0 40 -5 45 -20 4 -13 15 -20 31 -20 l24 0 -26 68 c-15 37 -31 82 -37&#10;100 -8 25 -16 32 -36 32 -23 0 -30 -9 -63 -93z m72 14 c0 -5 3 -16 6 -25 4&#10;-12 0 -16 -15 -16 -22 0 -25 8 -15 34 7 17 24 22 24 7z"/>
<path d="M1806 2343 c-4 -32 -9 -77 -11 -100 -4 -40 -3 -43 20 -43 21 0 25 5&#10;26 33 0 17 4 41 8 52 6 16 11 10 25 -33 10 -28 24 -52 31 -52 7 0 21 22 31 50&#10;20 55 34 50 34 -12 0 -33 3 -38 24 -38 24 0 24 2 20 58 -11 133 -14 142 -38&#10;142 -22 0 -26 -5 -58 -79 l-14 -34 -20 54 c-16 45 -24 55 -46 57 -25 3 -27 1&#10;-32 -55z"/>
<path d="M2130 2300 l0 -100 25 0 25 0 0 100 0 100 -25 0 -25 0 0 -100z"/>
<path d="M2220 2300 c0 -99 0 -100 25 -100 22 0 24 4 27 57 l3 57 38 -57 c24&#10;-38 44 -57 57 -57 19 0 20 7 20 100 0 92 -1 100 -20 100 -16 0 -19 -8 -22 -57&#10;l-3 -58 -39 58 c-29 42 -45 57 -62 57 -24 0 -24 -2 -24 -100z"/>
<path d="M2440 2300 c0 -93 1 -100 20 -100 18 0 20 7 20 55 0 30 4 55 9 55 5&#10;0 24 -25 42 -55 25 -41 39 -55 56 -55 22 0 23 2 23 100 0 93 -1 100 -20 100&#10;-16 0 -19 -8 -22 -61 l-3 -61 -40 61 c-29 45 -46 61 -62 61 -22 0 -23 -3 -23&#10;-100z"/>
<path d="M2875 2380 c3 -10 21 -54 40 -97 24 -55 39 -79 53 -81 14 -2 23 4 27&#10;20 4 13 16 41 26 63 10 22 25 57 33 78 15 37 15 37 -10 37 -20 0 -28 -8 -40&#10;-37 -38 -97 -33 -95 -61 -25 -21 52 -29 62 -50 62 -20 0 -23 -4 -18 -20z"/>
<path d="M3090 2300 l0 -100 25 0 25 0 0 100 0 100 -25 0 -25 0 0 -100z"/>
<path d="M3360 2300 l0 -100 25 0 25 0 0 100 0 100 -25 0 -25 0 0 -100z"/>
<path d="M3680 2300 c0 -99 0 -100 25 -100 22 0 24 4 27 57 l3 57 38 -57 c24&#10;-38 44 -57 57 -57 19 0 20 7 20 100 0 92 -1 100 -20 100 -16 0 -19 -8 -22 -57&#10;l-3 -58 -39 58 c-29 42 -45 57 -62 57 -24 0 -24 -2 -24 -100z"/>
<path d="M3922 2318 c-49 -122 -48 -118 -19 -118 16 0 26 7 30 20 4 16 14 20&#10;45 20 32 0 42 -4 47 -20 4 -13 15 -20 31 -20 13 0 24 3 23 8 0 4 -17 48 -37&#10;97 -32 77 -41 90 -62 93 -23 2 -28 -5 -58 -80z m78 -30 c0 -4 -9 -8 -21 -8&#10;-15 0 -19 4 -15 16 3 9 6 21 6 27 1 13 30 -22 30 -35z"/>
<path d="M4110 2300 c0 -93 1 -100 20 -100 16 0 20 7 20 38 l1 37 32 -38 c23&#10;-27 40 -37 61 -37 l28 0 -31 35 c-35 40 -37 48 -16 65 18 15 20 71 3 88 -7 7&#10;-36 12 -65 12 l-53 0 0 -100z m75 40 c0 -16 -6 -26 -17 -28 -14 -3 -18 3 -18&#10;28 0 25 4 31 18 28 11 -2 17 -12 17 -28z"/>
<path d="M4300 2300 c0 -93 1 -100 20 -100 19 0 20 7 20 100 0 93 -1 100 -20&#10;100 -19 0 -20 -7 -20 -100z"/>
<path d="M4383 2303 l2 -98 58 -3 c52 -3 57 -1 57 18 0 16 -6 20 -35 20 -28 0&#10;-35 4 -35 20 0 16 7 20 35 20 28 0 35 4 35 20 0 16 -7 20 -35 20 -28 0 -35 4&#10;-35 20 0 13 7 20 19 20 30 0 51 11 51 26 0 10 -15 14 -59 14 l-59 0 1 -97z"/>
<path d="M577 2263 c-12 -11 -8 -23 8 -23 8 0 15 7 15 15 0 16 -12 20 -23 8z"/>
<path d="M620 2255 c0 -8 0 -18 -1 -22 0 -4 4 -9 10 -11 6 -2 11 8 11 22 0 14&#10;-4 26 -10 26 -5 0 -10 -7 -10 -15z"/>
<path d="M672 2263 c-32 -6 -25 -38 9 -38 19 -1 25 5 27 22 1 13 -2 22 -6 22&#10;-4 -1 -17 -4 -30 -6z"/>
<path d="M727 2263 c-7 -16 -1 -38 11 -38 6 0 12 3 12 8 0 4 0 14 0 22 0 15&#10;-16 21 -23 8z"/>
<path d="M766 2262 c-12 -19 5 -39 34 -40 23 0 30 4 30 18 0 25 -18 36 -26 15&#10;-6 -14 -8 -14 -19 1 -8 11 -14 13 -19 6z"/>
<path d="M847 2263 c-11 -10 -8 -43 3 -43 6 0 10 11 10 25 0 26 -2 29 -13 18z"/>
<path d="M880 2245 c0 -17 5 -25 13 -22 6 2 12 12 12 22 0 10 -6 20 -12 23 -8&#10;2 -13 -6 -13 -23z"/>
<path d="M616 2184 c-3 -9 -6 -18 -6 -20 0 -3 74 -4 165 -4 132 1 165 4 165&#10;15 0 19 -17 28 -24 13 -5 -10 -7 -10 -12 0 -3 6 -10 12 -15 12 -6 0 -7 -4 -4&#10;-10 3 -5 -1 -10 -9 -10 -9 0 -16 5 -16 11 0 8 -5 8 -15 -1 -10 -9 -15 -9 -15&#10;-1 0 6 -7 11 -15 11 -8 0 -15 -5 -15 -11 0 -8 -4 -8 -14 0 -11 9 -16 9 -21 0&#10;-6 -8 -10 -8 -15 2 -7 10 -12 10 -23 0 -12 -9 -16 -9 -20 1 -4 10 -8 10 -17&#10;-2 -9 -12 -13 -12 -17 -2 -4 10 -8 10 -19 1 -10 -8 -14 -8 -14 0 0 17 -17 13&#10;-24 -5z"/>
<path d="M638 2128 c-13 -34 3 -38 138 -38 124 0 134 1 134 19 0 23 -40 31&#10;-171 31 -69 0 -98 -4 -101 -12z"/>
<path d="M670 2061 c0 -17 51 -50 85 -57 38 -7 100 18 116 47 9 18 4 19 -96&#10;19 -58 0 -105 -4 -105 -9z"/>
</g>
</svg>