<svg preserveAspectRatio="xMidYMid meet" viewBox="19.375 163.6 458 173" xmlns="http://www.w3.org/2000/svg" version="1.0" style="max-height: 500px" width="458" height="173">

<g stroke="none" fill="#000000" transform="translate(0.000000,500.000000) scale(0.100000,-0.100000)">
<path d="M3822 3254 c-61 -48 -78 -113 -46 -180 46 -97 174 -110 244 -26 24&#10;30 30 46 30 85 0 47 -11 80 -34 102 -55 54 -139 62 -194 19z"/>
<path d="M2524 3006 c-3 -7 -4 -40 -2 -72 l3 -59 68 -3 67 -3 0 76 0 75 -65 0&#10;c-46 0 -67 -4 -71 -14z"/>
<path d="M3638 2939 c-21 -5 -73 -26 -115 -46 -70 -34 -86 -38 -156 -38 -66 0&#10;-75 -2 -60 -13 10 -7 30 -16 46 -19 15 -3 30 -10 33 -15 3 -4 -4 -39 -15 -76&#10;-95 -314 -191 -641 -191 -653 1 -19 30 -54 57 -68 13 -7 82 -11 175 -11 126 0&#10;158 3 177 16 31 22 54 78 41 101 -10 18 -46 131 -90 283 -12 41 -25 86 -30&#10;100 -13 34 -90 297 -90 304 0 3 11 6 24 6 13 0 72 11 131 25 103 25 110 25&#10;161 10 l53 -15 35 37 c20 21 36 41 36 45 0 12 -101 38 -144 37 -23 -1 -58 -5&#10;-78 -10z m-247 -320 c1 -46 0 -180 0 -296 l-1 -213 -91 0 c-90 0 -91 0 -86 23&#10;19 73 172 575 175 572 2 -1 3 -40 3 -86z m64 -4 c15 -49 33 -111 41 -137 8&#10;-27 20 -69 28 -95 8 -27 28 -94 45 -150 17 -56 31 -107 31 -113 0 -6 -35 -10&#10;-90 -10 l-90 0 0 302 c0 166 2 299 4 297 2 -2 16 -44 31 -94z"/>
<path d="M4002 2935 c-45 -14 -102 -53 -139 -95 -39 -44 -91 -152 -112 -234&#10;-25 -95 -28 -275 -7 -376 22 -101 105 -320 122 -320 3 0 3 8 -1 18 -23 58 -46&#10;249 -46 382 0 221 43 359 147 466 69 72 130 90 224 69 36 -8 97 -20 135 -27&#10;39 -6 71 -12 73 -13 1 -1 -45 -160 -103 -353 -58 -192 -105 -360 -105 -372 0&#10;-12 13 -35 29 -51 l29 -29 159 0 c232 0 255 19 208 178 -15 48 -30 98 -35 112&#10;-5 14 -18 59 -30 100 -12 41 -34 116 -50 165 -31 99 -70 240 -70 254 0 4 18&#10;13 40 20 22 6 40 16 40 21 0 12 2 12 -40 0 -42 -12 -88 -1 -185 46 -116 54&#10;-198 66 -283 39z m523 -529 c47 -156 85 -287 85 -290 0 -3 -43 -6 -95 -6 l-95&#10;0 0 308 c1 212 4 302 11 290 5 -10 48 -146 94 -302z m-125 4 l0 -300 -90 0&#10;c-57 0 -90 4 -90 11 0 5 36 133 81 282 44 150 83 280 85 290 3 9 7 17 10 17 2&#10;0 4 -135 4 -300z"/>
<path d="M2440 2765 l0 -65 70 0 70 0 0 65 0 65 -70 0 -70 0 0 -65z"/>
<path d="M2610 2765 l0 -65 70 0 70 0 0 65 0 65 -70 0 -70 0 0 -65z"/>
<path d="M3971 2710 c-36 -50 -37 -56 -12 -135 50 -159 48 -399 -5 -604 -8&#10;-30 -12 -56 -10 -58 4 -4 55 101 74 152 68 181 82 387 37 553 -14 52 -31 103&#10;-39 114 -14 19 -15 19 -45 -22z"/>
<path d="M629 2692 c-73 -47 -89 -92 -89 -256 l0 -136 150 0 c150 0 150 0 150&#10;-23 0 -44 -14 -47 -196 -47 -95 0 -179 3 -188 6 -13 5 -16 25 -16 115 l0 109&#10;-80 0 -80 0 0 -102 c0 -122 11 -168 49 -207 60 -61 78 -66 287 -69 214 -4 256&#10;3 309 49 58 51 70 89 70 214 l0 110 -152 3 -153 3 0 42 c0 24 5 48 12 55 7 7&#10;44 12 95 12 l83 0 0 75 0 75 -103 0 c-96 0 -106 -2 -148 -28z"/>
<path d="M1230 2317 c0 -199 -3 -276 -12 -285 -7 -7 -39 -12 -75 -12 l-63 0 0&#10;-81 0 -82 83 5 c96 5 149 32 188 95 24 37 24 42 27 336 l3 297 -75 0 -76 0 0&#10;-273z"/>
<path d="M1583 2566 c-37 -17 -60 -37 -80 -68 -28 -43 -28 -44 -31 -230 l-3&#10;-188 170 0 c160 0 171 -1 171 -18 0 -35 -32 -52 -98 -52 l-62 0 0 -75 0 -75&#10;83 0 c65 0 91 4 122 21 64 35 97 81 110 156 l7 42 276 3 c240 3 281 5 309 20&#10;30 17 33 17 75 -2 111 -50 258 -7 308 90 18 35 20 59 20 215 l0 175 -75 0 -75&#10;0 0 -157 c0 -87 -4 -164 -9 -171 -5 -9 -26 -12 -67 -10 l-59 3 -5 155 -5 155&#10;-77 3 -77 3 -3 -158 -3 -158 -62 -3 -62 -3 -3 133 -3 133 -77 3 -78 3 0 -136&#10;0 -135 -125 0 -125 0 0 78 c0 138 -34 206 -124 248 -73 34 -190 34 -263 0z&#10;m217 -155 c5 -11 10 -54 10 -95 l0 -76 -95 0 -95 0 0 83 c0 51 5 88 12 95 7 7&#10;41 12 85 12 61 0 74 -3 83 -19z"/>
<path d="M3770 1911 c0 -5 18 -29 40 -52 22 -23 40 -44 40 -46 0 -1 -52 -3&#10;-115 -3 l-115 0 0 -45 0 -45 285 0 285 0 0 45 0 45 -105 0 c-58 0 -105 3 -105&#10;6 0 3 11 15 25 26 14 11 30 29 36 41 l12 22 -24 -22 c-67 -61 -169 -58 -230 8&#10;-16 17 -29 26 -29 20z"/>
</g>
</svg>